<?xml version="1.0" encoding="utf-8"?>
<!-- Generator: Adobe Illustrator 22.0.1, SVG Export Plug-In . SVG Version: 6.00 Build 0)  -->
<svg version="1.1" id="Layer_1" xmlns="http://www.w3.org/2000/svg" xmlns:xlink="http://www.w3.org/1999/xlink" x="0px" y="0px"
	 viewBox="0 0 218 52" style="enable-background:new 0 0 218 52;" xml:space="preserve">
<style type="text/css">
	.st0{fill:#FFBE2F;}
</style>
<g>
	<path class="st0" d="M123.4,18.3l-2.3,9.9c-1.1,1.5-2.5,1.9-4.5,1.9c-4.4,0-6.1-4-6.1-8.6c0-8.3,5.9-18.1,11.6-18.1
		c3.4,0,3.6,2.9,3.6,3.7c0,1.3-1,3.9-2.3,4.3c1,1.1,2.8,1.4,3.6,1.4c2.7,0,3.7-2,3.7-4.8c0-5.1-4.9-7-9.7-7
		c-11.7,0-18.6,10.1-18.6,20.1c0,7.2,2.7,13.4,11.3,13.4c0.5,0,3.4-0.3,6.4-1.9l-1.9,8.5c-1,4.6-8.3,5-11.9,5.1H6.1V51h105.4
		c8.6,0,12.6-5,14.3-13l4.3-19.6L123.4,18.3z"/>
	<path class="st0" d="M12.7,7.2L5.6,40.4h7.5l3.2-14.9h0.3c9.4,0,15.1-7.4,15.1-14c0-5.4-3.8-10.3-12.3-10.3C10.6,1.2,1,7.9,1,14.8
		c0,3.8,2,5.1,5.6,5.1c-0.1-0.5-0.7-0.9-0.7-3.5c0-7.9,5.1-12.7,13.6-12.7c4.6,0,6.5,3.2,6.5,7.1c0,5.6-3.9,12.4-9.2,12.8l3.7-17.4
		L12.7,7.2z"/>
	<path class="st0" d="M38.3,40.6c6.4,0,11.7-6.1,12.5-15.7c1.5-0.3,3-0.7,4.4-1.2L53.6,31c-0.3,1.3-0.4,2.4-0.4,3.4
		c0,4.4,2.5,6.3,5.6,6.3c2.2,0,5.1-0.7,7.7-5c0.3,3.2,2.2,5,5.2,5c1.8,0,4.5-0.5,6.9-3.2l-0.6,2.9h7.5l4.2-19.8c1.3-1.2,2.2-2,3.8-2
		c1.6,0,0.1,3.4,3,3.4c2.6,0,3.8-2,3.8-3.8c0-2-1.3-3.9-3.6-3.9c-2.5,0-4.5,1.7-6.3,3.2l0.7-3.2h-7.5l-3.6,16.8
		c-0.8,2.6-2.2,4.6-4.2,4.6c-1.5,0-2.1-0.5-2.1-1.9c0-0.5,0.1-1,0.2-1.7l3.8-17.7h-7.5L66.6,31c-0.8,2.6-2.1,4.6-4.2,4.6
		c-1.2,0-1.6-0.9-1.6-2.1c0-0.5,0.1-0.9,0.2-1.5l3.8-17.7h-7.5l-1.5,7c-1.5,0.6-2.9,1-4.2,1c-0.2,0-0.4,0-0.6-0.1
		c0-5.5-2.2-8.3-6.7-8.3c-10.8,0-14.3,12.5-14.3,18.5C29.9,38.3,33.4,40.6,38.3,40.6z M44.7,17c1.4,0,1.9,0.8,2,3
		c-0.9,0.4-1.6,1.4-1.6,2.8c0,1,0.3,1.9,1.4,2.2c-0.8,6.2-3.5,10.9-6.1,10.9c-2,0-2.7-0.8-2.7-4.2C37.7,26.5,41,17,44.7,17z"/>
	<path class="st0" d="M165.1,11.5c2.3,0,4.2-1.8,4.2-4.1c0-2.3-1.9-4.2-4.2-4.2c-2.3,0-4.1,1.9-4.1,4.2
		C161,9.6,162.8,11.5,165.1,11.5z"/>
	<path class="st0" d="M204.9,31.4c0-0.5,0.1-1,0.1-1.6c6.3-0.4,12-5,12-11c0-2.6-1.1-5-5.8-5c-10.7,0-14.1,12.6-14.1,18.6
		c0,0.2,0,0.3,0,0.5c-0.8,1.6-2,2.8-3.5,2.8c-1.5,0-2.1-0.5-2.1-1.9c0-0.5,0.1-1,0.2-1.7l6-28.2l-7.7,1l-2.6,12v-0.2
		c0-1.5-1.3-2.7-4.2-2.7c-9.1,0-13.4,11.2-13.4,18.3c0,0.1,0,0.2,0,0.4c-1,1.8-2.4,3-4,3c-1.5,0-2.1-0.5-2.1-1.9
		c0-0.5,0.1-1,0.2-1.7l3.8-17.7H160L156.4,31h0c-0.8,2.6-2.2,4.6-4.2,4.6c-1.5,0-2.1-0.5-2.1-1.9c0-0.5,0.1-1,0.2-1.7l3.8-17.7h-7.5
		L142.9,31c-0.8,2.6-2.1,4.6-4.2,4.6c-1.2,0-1.6-0.9-1.6-2.1c0-0.5,0.1-0.9,0.2-1.5l3.8-17.7h-7.5L130,31c-0.3,1.3-0.4,2.4-0.4,3.4
		c0,4.4,2.5,6.3,5.6,6.3c2.2,0,5.1-0.7,7.7-5c0.3,3.2,2.2,5,5.2,5c2.1,0,5.3-0.7,8-4.6c0.6,3.2,2.8,4.6,5.5,4.6
		c2.2,0,5.7-0.7,8.6-4.8c1.1,3.5,3.7,4.8,6.5,4.8c3.7,0,6.2-2.4,7.7-4.8c0.4,2.9,2.3,4.5,5.1,4.5c2.1,0,5.4-0.5,8.1-4.4
		c1.1,3.3,3.9,4.7,7.6,4.7c4.2,0,8-1.8,9.1-7.7c-1.7,1.5-4.2,2.8-6.2,2.8C206.3,35.7,204.9,34.7,204.9,31.4z M211.7,16.6
		c1,0,1.3,0.8,1.3,2.1c0,4.4-3.6,8.4-7.6,8.6C206.4,22.4,209,16.6,211.7,16.6z M184.3,31v0.3c-0.7,2.9-2.8,4.3-4.3,4.3
		c-0.9,0-2.6-0.1-2.6-4.1c0-4.9,2.9-14.3,7.3-14.3c1.6,0,2,1.2,2.1,1.8L184.3,31z"/>
</g>
</svg>
